<svg width="226" height="55" viewBox="0 0 226 55" fill="none" xmlns="http://www.w3.org/2000/svg">
<path d="M41.392 22.3V33.5H39.824V23.692H33.328V33.5H31.744V22.3H41.392ZM48.2606 33.596C47.418 33.596 46.6606 33.4093 45.9886 33.036C45.3166 32.6627 44.7886 32.1507 44.4046 31.5C44.0313 30.8387 43.8446 30.092 43.8446 29.26C43.8446 28.428 44.0313 27.6867 44.4046 27.036C44.7886 26.3747 45.3166 25.8627 45.9886 25.5C46.6606 25.1267 47.418 24.94 48.2606 24.94C49.1033 24.94 49.8553 25.1267 50.5166 25.5C51.1886 25.8627 51.7113 26.3747 52.0846 27.036C52.4686 27.6867 52.6606 28.428 52.6606 29.26C52.6606 30.092 52.4686 30.8387 52.0846 31.5C51.7113 32.1507 51.1886 32.6627 50.5166 33.036C49.8553 33.4093 49.1033 33.596 48.2606 33.596ZM48.2606 32.252C48.8046 32.252 49.29 32.1293 49.7166 31.884C50.154 31.628 50.4953 31.276 50.7406 30.828C50.986 30.3693 51.1086 29.8467 51.1086 29.26C51.1086 28.6733 50.986 28.156 50.7406 27.708C50.4953 27.2493 50.154 26.8973 49.7166 26.652C49.29 26.4067 48.8046 26.284 48.2606 26.284C47.7166 26.284 47.226 26.4067 46.7886 26.652C46.362 26.8973 46.0206 27.2493 45.7646 27.708C45.5193 28.156 45.3966 28.6733 45.3966 29.26C45.3966 29.8467 45.5193 30.3693 45.7646 30.828C46.0206 31.276 46.362 31.628 46.7886 31.884C47.226 32.1293 47.7166 32.252 48.2606 32.252ZM58.1746 29.916H56.4146V33.5H54.8786V25.02H56.4146V28.604H58.2066L60.9586 25.02H62.6066L59.3906 29.1L62.8306 33.5H61.0226L58.1746 29.916ZM67.3089 24.94C68.4822 24.94 69.3782 25.228 69.9969 25.804C70.6262 26.38 70.9409 27.2387 70.9409 28.38V33.5H69.4849V32.38C69.2289 32.7747 68.8609 33.0787 68.3809 33.292C67.9115 33.4947 67.3515 33.596 66.7009 33.596C65.7515 33.596 64.9889 33.3667 64.4129 32.908C63.8475 32.4493 63.5649 31.8467 63.5649 31.1C63.5649 30.3533 63.8369 29.756 64.3809 29.308C64.9249 28.8493 65.7889 28.62 66.9729 28.62H69.4049V28.316C69.4049 27.6547 69.2129 27.148 68.8289 26.796C68.4449 26.444 67.8795 26.268 67.1329 26.268C66.6315 26.268 66.1409 26.3533 65.6609 26.524C65.1809 26.684 64.7755 26.9027 64.4449 27.18L63.8049 26.028C64.2422 25.676 64.7649 25.4093 65.3729 25.228C65.9809 25.036 66.6262 24.94 67.3089 24.94ZM66.9569 32.412C67.5435 32.412 68.0502 32.284 68.4769 32.028C68.9035 31.7613 69.2129 31.388 69.4049 30.908V29.724H67.0369C65.7355 29.724 65.0849 30.1613 65.0849 31.036C65.0849 31.4627 65.2502 31.7987 65.5809 32.044C65.9115 32.2893 66.3702 32.412 66.9569 32.412ZM78.1581 29.084C78.7235 29.2333 79.1608 29.4733 79.4701 29.804C79.7795 30.1347 79.9341 30.5453 79.9341 31.036C79.9341 31.5373 79.7635 31.9853 79.4221 32.38C79.0808 32.764 78.6061 33.068 77.9981 33.292C77.4008 33.5053 76.7288 33.612 75.9821 33.612C75.3528 33.612 74.7341 33.532 74.1261 33.372C73.5288 33.2013 72.9955 32.9613 72.5261 32.652L72.9901 31.484C73.3955 31.74 73.8595 31.9427 74.3821 32.092C74.9048 32.2307 75.4328 32.3 75.9661 32.3C76.6915 32.3 77.2675 32.1773 77.6941 31.932C78.1315 31.676 78.3501 31.3347 78.3501 30.908C78.3501 30.5133 78.1741 30.2093 77.8221 29.996C77.4808 29.7827 76.9955 29.676 76.3661 29.676H74.8141V28.572H76.2541C76.8301 28.572 77.2835 28.4707 77.6141 28.268C77.9448 28.0653 78.1101 27.788 78.1101 27.436C78.1101 27.052 77.9128 26.7533 77.5181 26.54C77.1341 26.3267 76.6115 26.22 75.9501 26.22C75.1075 26.22 74.2168 26.4387 73.2781 26.876L72.8621 25.692C73.8968 25.1693 74.9795 24.908 76.1101 24.908C76.7928 24.908 77.4061 25.004 77.9501 25.196C78.4941 25.388 78.9208 25.66 79.2301 26.012C79.5395 26.364 79.6941 26.764 79.6941 27.212C79.6941 27.628 79.5555 28.0013 79.2781 28.332C79.0008 28.6627 78.6275 28.9133 78.1581 29.084ZM85.2933 24.94C86.4666 24.94 87.3626 25.228 87.9813 25.804C88.6106 26.38 88.9253 27.2387 88.9253 28.38V33.5H87.4693V32.38C87.2133 32.7747 86.8453 33.0787 86.3653 33.292C85.8959 33.4947 85.3359 33.596 84.6853 33.596C83.7359 33.596 82.9733 33.3667 82.3973 32.908C81.8319 32.4493 81.5493 31.8467 81.5493 31.1C81.5493 30.3533 81.8213 29.756 82.3653 29.308C82.9093 28.8493 83.7733 28.62 84.9573 28.62H87.3893V28.316C87.3893 27.6547 87.1973 27.148 86.8133 26.796C86.4293 26.444 85.8639 26.268 85.1173 26.268C84.6159 26.268 84.1253 26.3533 83.6453 26.524C83.1653 26.684 82.7599 26.9027 82.4293 27.18L81.7893 26.028C82.2266 25.676 82.7493 25.4093 83.3573 25.228C83.9653 25.036 84.6106 24.94 85.2933 24.94ZM84.9413 32.412C85.5279 32.412 86.0346 32.284 86.4613 32.028C86.8879 31.7613 87.1973 31.388 87.3893 30.908V29.724H85.0213C83.7199 29.724 83.0693 30.1613 83.0693 31.036C83.0693 31.4627 83.2346 31.7987 83.5653 32.044C83.8959 32.2893 84.3546 32.412 84.9413 32.412ZM98.0111 26.364H94.9071V33.5H93.3711V26.364H90.2671V25.02H98.0111V26.364ZM103.502 27.9C104.579 27.9107 105.4 28.156 105.966 28.636C106.531 29.116 106.814 29.7933 106.814 30.668C106.814 31.5853 106.504 32.2947 105.886 32.796C105.278 33.2867 104.403 33.5267 103.262 33.516L99.5818 33.5V25.02H101.118V27.884L103.502 27.9ZM103.134 32.348C103.827 32.3587 104.35 32.22 104.702 31.932C105.064 31.644 105.246 31.2173 105.246 30.652C105.246 30.0973 105.07 29.692 104.718 29.436C104.376 29.18 103.848 29.0467 103.134 29.036L101.118 29.004V32.332L103.134 32.348ZM120.746 29.308C120.746 29.4253 120.735 29.58 120.714 29.772H113.834C113.93 30.5187 114.255 31.1213 114.81 31.58C115.375 32.028 116.074 32.252 116.906 32.252C117.919 32.252 118.735 31.9107 119.354 31.228L120.202 32.22C119.818 32.668 119.338 33.0093 118.762 33.244C118.196 33.4787 117.562 33.596 116.858 33.596C115.962 33.596 115.167 33.4147 114.474 33.052C113.78 32.6787 113.242 32.1613 112.858 31.5C112.484 30.8387 112.298 30.092 112.298 29.26C112.298 28.4387 112.479 27.6973 112.842 27.036C113.215 26.3747 113.722 25.8627 114.362 25.5C115.012 25.1267 115.743 24.94 116.554 24.94C117.364 24.94 118.084 25.1267 118.714 25.5C119.354 25.8627 119.85 26.3747 120.202 27.036C120.564 27.6973 120.746 28.4547 120.746 29.308ZM116.554 26.236C115.818 26.236 115.199 26.46 114.698 26.908C114.207 27.356 113.919 27.9427 113.834 28.668H119.274C119.188 27.9533 118.895 27.372 118.394 26.924C117.903 26.4653 117.29 26.236 116.554 26.236ZM135.209 25.02V33.5H123.129V25.02H124.665V32.156H128.409V25.02H129.945V32.156H133.673V25.02H135.209ZM136.473 32.156V35.308H135.033V33.5H133.609V32.156H136.473ZM145.855 29.308C145.855 29.4253 145.844 29.58 145.823 29.772H138.943C139.039 30.5187 139.364 31.1213 139.919 31.58C140.484 32.028 141.183 32.252 142.015 32.252C143.028 32.252 143.844 31.9107 144.463 31.228L145.311 32.22C144.927 32.668 144.447 33.0093 143.871 33.244C143.306 33.4787 142.671 33.596 141.967 33.596C141.071 33.596 140.276 33.4147 139.583 33.052C138.89 32.6787 138.351 32.1613 137.967 31.5C137.594 30.8387 137.407 30.092 137.407 29.26C137.407 28.4387 137.588 27.6973 137.951 27.036C138.324 26.3747 138.831 25.8627 139.471 25.5C140.122 25.1267 140.852 24.94 141.663 24.94C142.474 24.94 143.194 25.1267 143.823 25.5C144.463 25.8627 144.959 26.3747 145.311 27.036C145.674 27.6973 145.855 28.4547 145.855 29.308ZM141.663 26.236C140.927 26.236 140.308 26.46 139.807 26.908C139.316 27.356 139.028 27.9427 138.943 28.668H144.383C144.298 27.9533 144.004 27.372 143.503 26.924C143.012 26.4653 142.399 26.236 141.663 26.236Z" fill="white"/>
<g clip-path="url(#clip0_27_21)">
<path d="M190.468 30.8336L195.808 25.4934C195.932 25.3699 196 25.205 196 25.0292C196 24.8534 195.932 24.6886 195.808 24.565L195.415 24.1718C195.159 23.9159 194.743 23.9159 194.487 24.1718L190.002 28.656L185.513 24.1668C185.39 24.0433 185.225 23.9751 185.049 23.9751C184.873 23.9751 184.708 24.0433 184.585 24.1668L184.192 24.5601C184.068 24.6837 184 24.8485 184 25.0243C184 25.2001 184.068 25.3649 184.192 25.4885L189.537 30.8336C189.661 30.9574 189.826 31.0254 190.002 31.025C190.179 31.0254 190.344 30.9574 190.468 30.8336Z" fill="white"/>
</g>
<rect x="0.5" y="0.5" width="225" height="54" stroke="white"/>
<defs>
<clipPath id="clip0_27_21">
<rect width="12" height="12" fill="white" transform="translate(196 21.5) rotate(90)"/>
</clipPath>
</defs>
</svg>
