<svg width="249" height="55" viewBox="0 0 249 55" fill="none" xmlns="http://www.w3.org/2000/svg">
<path d="M36.784 33.628C35.6533 33.628 34.6347 33.3827 33.728 32.892C32.8213 32.3907 32.1067 31.7027 31.584 30.828C31.072 29.9533 30.816 28.9773 30.816 27.9C30.816 26.8227 31.072 25.8467 31.584 24.972C32.1067 24.0973 32.8213 23.4147 33.728 22.924C34.6347 22.4227 35.6533 22.172 36.784 22.172C37.904 22.172 38.9173 22.4227 39.824 22.924C40.7307 23.4147 41.44 24.0973 41.952 24.972C42.464 25.836 42.72 26.812 42.72 27.9C42.72 28.988 42.464 29.9693 41.952 30.844C41.44 31.708 40.7307 32.3907 39.824 32.892C38.9173 33.3827 37.904 33.628 36.784 33.628ZM36.784 32.204C37.6053 32.204 38.3413 32.0173 38.992 31.644C39.6533 31.2707 40.1707 30.7587 40.544 30.108C40.928 29.4467 41.12 28.7107 41.12 27.9C41.12 27.0893 40.928 26.3587 40.544 25.708C40.1707 25.0467 39.6533 24.5293 38.992 24.156C38.3413 23.7827 37.6053 23.596 36.784 23.596C35.9627 23.596 35.216 23.7827 34.544 24.156C33.8827 24.5293 33.36 25.0467 32.976 25.708C32.6027 26.3587 32.416 27.0893 32.416 27.9C32.416 28.7107 32.6027 29.4467 32.976 30.108C33.36 30.7587 33.8827 31.2707 34.544 31.644C35.216 32.0173 35.9627 32.204 36.784 32.204ZM55.7545 29.244C55.7545 30.556 55.3172 31.5907 54.4425 32.348C53.5678 33.1053 52.3358 33.5267 50.7465 33.612V36.604H49.2425V33.612C47.6532 33.5267 46.4212 33.1107 45.5465 32.364C44.6825 31.6067 44.2505 30.5667 44.2505 29.244C44.2505 27.932 44.6825 26.908 45.5465 26.172C46.4105 25.436 47.6425 25.0253 49.2425 24.94V21.628H50.7465V24.94C52.3358 25.0253 53.5678 25.4413 54.4425 26.188C55.3172 26.924 55.7545 27.9427 55.7545 29.244ZM45.7705 29.244C45.7705 30.1507 46.0585 30.86 46.6345 31.372C47.2212 31.884 48.0905 32.1773 49.2425 32.252V26.3C48.0798 26.3747 47.2105 26.6627 46.6345 27.164C46.0585 27.6653 45.7705 28.3587 45.7705 29.244ZM50.7465 32.268C53.0718 32.0867 54.2345 31.0787 54.2345 29.244C54.2345 28.348 53.9412 27.6547 53.3545 27.164C52.7678 26.6627 51.8985 26.3747 50.7465 26.3V32.268ZM61.5575 33.596C60.7148 33.596 59.9575 33.4093 59.2855 33.036C58.6135 32.6627 58.0855 32.1507 57.7015 31.5C57.3282 30.8387 57.1415 30.092 57.1415 29.26C57.1415 28.428 57.3282 27.6867 57.7015 27.036C58.0855 26.3747 58.6135 25.8627 59.2855 25.5C59.9575 25.1267 60.7148 24.94 61.5575 24.94C62.4002 24.94 63.1522 25.1267 63.8135 25.5C64.4855 25.8627 65.0082 26.3747 65.3815 27.036C65.7655 27.6867 65.9575 28.428 65.9575 29.26C65.9575 30.092 65.7655 30.8387 65.3815 31.5C65.0082 32.1507 64.4855 32.6627 63.8135 33.036C63.1522 33.4093 62.4002 33.596 61.5575 33.596ZM61.5575 32.252C62.1015 32.252 62.5868 32.1293 63.0135 31.884C63.4508 31.628 63.7922 31.276 64.0375 30.828C64.2828 30.3693 64.4055 29.8467 64.4055 29.26C64.4055 28.6733 64.2828 28.156 64.0375 27.708C63.7922 27.2493 63.4508 26.8973 63.0135 26.652C62.5868 26.4067 62.1015 26.284 61.5575 26.284C61.0135 26.284 60.5228 26.4067 60.0855 26.652C59.6588 26.8973 59.3175 27.2493 59.0615 27.708C58.8162 28.156 58.6935 28.6733 58.6935 29.26C58.6935 29.8467 58.8162 30.3693 59.0615 30.828C59.3175 31.276 59.6588 31.628 60.0855 31.884C60.5228 32.1293 61.0135 32.252 61.5575 32.252ZM72.6715 24.94C73.4928 24.94 74.2288 25.1213 74.8795 25.484C75.5302 25.8467 76.0368 26.3533 76.3995 27.004C76.7728 27.6547 76.9595 28.4067 76.9595 29.26C76.9595 30.1133 76.7728 30.8707 76.3995 31.532C76.0368 32.1827 75.5302 32.6893 74.8795 33.052C74.2288 33.4147 73.4928 33.596 72.6715 33.596C72.0635 33.596 71.5035 33.4787 70.9915 33.244C70.4902 33.0093 70.0635 32.668 69.7115 32.22V36.604H68.1755V25.02H69.6475V26.364C69.9888 25.8947 70.4208 25.5427 70.9435 25.308C71.4662 25.0627 72.0422 24.94 72.6715 24.94ZM72.5435 32.252C73.0875 32.252 73.5728 32.1293 73.9995 31.884C74.4368 31.628 74.7782 31.276 75.0235 30.828C75.2795 30.3693 75.4075 29.8467 75.4075 29.26C75.4075 28.6733 75.2795 28.156 75.0235 27.708C74.7782 27.2493 74.4368 26.8973 73.9995 26.652C73.5728 26.4067 73.0875 26.284 72.5435 26.284C72.0102 26.284 71.5248 26.412 71.0875 26.668C70.6608 26.9133 70.3195 27.26 70.0635 27.708C69.8182 28.156 69.6955 28.6733 69.6955 29.26C69.6955 29.8467 69.8182 30.3693 70.0635 30.828C70.3088 31.276 70.6502 31.628 71.0875 31.884C71.5248 32.1293 72.0102 32.252 72.5435 32.252ZM88.9671 25.02V33.5H87.5751V27.308L84.4071 32.54H83.7351L80.5991 27.292V33.5H79.1911V25.02H80.7751L84.1031 30.748L87.5271 25.02H88.9671ZM91.9568 25.02H93.4928V31.196L98.6927 25.02H100.085V33.5H98.5487V27.324L93.3648 33.5H91.9568V25.02ZM109.386 26.364H106.282V33.5H104.746V26.364H101.642V25.02H109.386V26.364ZM114.877 27.9C115.954 27.9107 116.775 28.156 117.341 28.636C117.906 29.116 118.189 29.7933 118.189 30.668C118.189 31.5853 117.879 32.2947 117.261 32.796C116.653 33.2867 115.778 33.5267 114.637 33.516L110.957 33.5V25.02H112.493V27.884L114.877 27.9ZM114.509 32.348C115.202 32.3587 115.725 32.22 116.077 31.932C116.439 31.644 116.621 31.2173 116.621 30.652C116.621 30.0973 116.445 29.692 116.093 29.436C115.751 29.18 115.223 29.0467 114.509 29.036L112.493 29.004V32.332L114.509 32.348ZM129.049 29.084C129.614 29.2333 130.051 29.4733 130.361 29.804C130.67 30.1347 130.825 30.5453 130.825 31.036C130.825 31.5373 130.654 31.9853 130.313 32.38C129.971 32.764 129.497 33.068 128.889 33.292C128.291 33.5053 127.619 33.612 126.873 33.612C126.243 33.612 125.625 33.532 125.017 33.372C124.419 33.2013 123.886 32.9613 123.417 32.652L123.881 31.484C124.286 31.74 124.75 31.9427 125.273 32.092C125.795 32.2307 126.323 32.3 126.857 32.3C127.582 32.3 128.158 32.1773 128.585 31.932C129.022 31.676 129.241 31.3347 129.241 30.908C129.241 30.5133 129.065 30.2093 128.713 29.996C128.371 29.7827 127.886 29.676 127.257 29.676H125.705V28.572H127.145C127.721 28.572 128.174 28.4707 128.505 28.268C128.835 28.0653 129.001 27.788 129.001 27.436C129.001 27.052 128.803 26.7533 128.409 26.54C128.025 26.3267 127.502 26.22 126.841 26.22C125.998 26.22 125.107 26.4387 124.169 26.876L123.753 25.692C124.787 25.1693 125.87 24.908 127.001 24.908C127.683 24.908 128.297 25.004 128.841 25.196C129.385 25.388 129.811 25.66 130.121 26.012C130.43 26.364 130.585 26.764 130.585 27.212C130.585 27.628 130.446 28.0013 130.169 28.332C129.891 28.6627 129.518 28.9133 129.049 29.084ZM136.184 24.94C137.357 24.94 138.253 25.228 138.872 25.804C139.501 26.38 139.816 27.2387 139.816 28.38V33.5H138.36V32.38C138.104 32.7747 137.736 33.0787 137.256 33.292C136.787 33.4947 136.227 33.596 135.576 33.596C134.627 33.596 133.864 33.3667 133.288 32.908C132.723 32.4493 132.44 31.8467 132.44 31.1C132.44 30.3533 132.712 29.756 133.256 29.308C133.8 28.8493 134.664 28.62 135.848 28.62H138.28V28.316C138.28 27.6547 138.088 27.148 137.704 26.796C137.32 26.444 136.755 26.268 136.008 26.268C135.507 26.268 135.016 26.3533 134.536 26.524C134.056 26.684 133.651 26.9027 133.32 27.18L132.68 26.028C133.117 25.676 133.64 25.4093 134.248 25.228C134.856 25.036 135.501 24.94 136.184 24.94ZM135.832 32.412C136.419 32.412 136.925 32.284 137.352 32.028C137.779 31.7613 138.088 31.388 138.28 30.908V29.724H135.912C134.611 29.724 133.96 30.1613 133.96 31.036C133.96 31.4627 134.125 31.7987 134.456 32.044C134.787 32.2893 135.245 32.412 135.832 32.412ZM149.382 25.02V33.5H148.006V30.812H145.542H145.366L143.51 33.5H141.862L143.926 30.604C143.286 30.412 142.795 30.0973 142.454 29.66C142.112 29.212 141.942 28.6573 141.942 27.996C141.942 27.0253 142.272 26.2893 142.934 25.788C143.595 25.276 144.507 25.02 145.67 25.02H149.382ZM143.51 28.044C143.51 28.6093 143.686 29.0307 144.038 29.308C144.4 29.5747 144.939 29.708 145.654 29.708H148.006V26.364H145.718C144.246 26.364 143.51 26.924 143.51 28.044ZM158.155 29.1C159.253 29.3773 159.803 30.0653 159.803 31.164C159.803 31.9107 159.52 32.4867 158.955 32.892C158.4 33.2973 157.568 33.5 156.459 33.5H152.379V25.02H156.315C157.317 25.02 158.101 25.212 158.667 25.596C159.232 25.9693 159.515 26.5027 159.515 27.196C159.515 27.644 159.392 28.0333 159.147 28.364C158.912 28.684 158.581 28.9293 158.155 29.1ZM153.883 28.668H156.187C156.773 28.668 157.216 28.5613 157.515 28.348C157.824 28.1347 157.979 27.8253 157.979 27.42C157.979 26.6093 157.381 26.204 156.187 26.204H153.883V28.668ZM156.347 32.316C156.987 32.316 157.467 32.2147 157.787 32.012C158.107 31.8093 158.267 31.4947 158.267 31.068C158.267 30.6307 158.117 30.3053 157.819 30.092C157.531 29.8787 157.072 29.772 156.443 29.772H153.883V32.316H156.347ZM165.503 29.916H163.743V33.5H162.207V25.02H163.743V28.604H165.535L168.287 25.02H169.935L166.719 29.1L170.159 33.5H168.351L165.503 29.916ZM178.853 25.02L174.741 34.348C174.378 35.212 173.952 35.82 173.461 36.172C172.981 36.524 172.4 36.7 171.717 36.7C171.301 36.7 170.896 36.6307 170.501 36.492C170.117 36.364 169.797 36.172 169.541 35.916L170.197 34.764C170.634 35.18 171.141 35.388 171.717 35.388C172.09 35.388 172.4 35.2867 172.645 35.084C172.901 34.892 173.13 34.556 173.333 34.076L173.605 33.484L169.861 25.02H171.461L174.421 31.804L177.349 25.02H178.853Z" fill="white"/>
<g clip-path="url(#clip0_9_122)">
<path d="M216.334 27.0318L210.993 21.6917C210.87 21.5681 210.705 21.5 210.529 21.5C210.353 21.5 210.189 21.5681 210.065 21.6917L209.672 22.0849C209.416 22.3411 209.416 22.7575 209.672 23.0133L214.156 27.4975L209.667 31.9867C209.543 32.1104 209.475 32.2751 209.475 32.4508C209.475 32.6267 209.543 32.7915 209.667 32.9152L210.06 33.3083C210.184 33.4319 210.348 33.5 210.524 33.5C210.7 33.5 210.865 33.4319 210.988 33.3083L216.334 27.9634C216.457 27.8394 216.525 27.6738 216.525 27.4978C216.525 27.3211 216.457 27.1557 216.334 27.0318Z" fill="white"/>
</g>
<rect x="0.5" y="0.5" width="248" height="54" stroke="white"/>
<defs>
<clipPath id="clip0_9_122">
<rect width="12" height="12" fill="white" transform="translate(207 21.5)"/>
</clipPath>
</defs>
</svg>
