<svg width="194" height="55" viewBox="0 0 194 55" fill="none" xmlns="http://www.w3.org/2000/svg">
<path d="M36.784 33.628C35.6533 33.628 34.6347 33.3827 33.728 32.892C32.8213 32.3907 32.1067 31.7027 31.584 30.828C31.072 29.9533 30.816 28.9773 30.816 27.9C30.816 26.8227 31.072 25.8467 31.584 24.972C32.1067 24.0973 32.8213 23.4147 33.728 22.924C34.6347 22.4227 35.6533 22.172 36.784 22.172C37.904 22.172 38.9173 22.4227 39.824 22.924C40.7307 23.4147 41.44 24.0973 41.952 24.972C42.464 25.836 42.72 26.812 42.72 27.9C42.72 28.988 42.464 29.9693 41.952 30.844C41.44 31.708 40.7307 32.3907 39.824 32.892C38.9173 33.3827 37.904 33.628 36.784 33.628ZM36.784 32.204C37.6053 32.204 38.3413 32.0173 38.992 31.644C39.6533 31.2707 40.1707 30.7587 40.544 30.108C40.928 29.4467 41.12 28.7107 41.12 27.9C41.12 27.0893 40.928 26.3587 40.544 25.708C40.1707 25.0467 39.6533 24.5293 38.992 24.156C38.3413 23.7827 37.6053 23.596 36.784 23.596C35.9627 23.596 35.216 23.7827 34.544 24.156C33.8827 24.5293 33.36 25.0467 32.976 25.708C32.6027 26.3587 32.416 27.0893 32.416 27.9C32.416 28.7107 32.6027 29.4467 32.976 30.108C33.36 30.7587 33.8827 31.2707 34.544 31.644C35.216 32.0173 35.9627 32.204 36.784 32.204ZM51.183 26.364H48.079V33.5H46.543V26.364H43.439V25.02H51.183V26.364ZM60.6096 25.02V33.5H59.0736V26.364H54.2896V33.5H52.7536V25.02H60.6096ZM68.0778 24.94C68.8991 24.94 69.6351 25.1213 70.2858 25.484C70.9364 25.8467 71.4431 26.3533 71.8058 27.004C72.1791 27.6547 72.3658 28.4067 72.3658 29.26C72.3658 30.1133 72.1791 30.8707 71.8058 31.532C71.4431 32.1827 70.9364 32.6893 70.2858 33.052C69.6351 33.4147 68.8991 33.596 68.0778 33.596C67.4698 33.596 66.9098 33.4787 66.3978 33.244C65.8964 33.0093 65.4698 32.668 65.1178 32.22V36.604H63.5818V25.02H65.0538V26.364C65.3951 25.8947 65.8271 25.5427 66.3498 25.308C66.8724 25.0627 67.4484 24.94 68.0778 24.94ZM67.9498 32.252C68.4938 32.252 68.9791 32.1293 69.4058 31.884C69.8431 31.628 70.1844 31.276 70.4298 30.828C70.6858 30.3693 70.8138 29.8467 70.8138 29.26C70.8138 28.6733 70.6858 28.156 70.4298 27.708C70.1844 27.2493 69.8431 26.8973 69.4058 26.652C68.9791 26.4067 68.4938 26.284 67.9498 26.284C67.4164 26.284 66.9311 26.412 66.4938 26.668C66.0671 26.9133 65.7258 27.26 65.4698 27.708C65.2244 28.156 65.1018 28.6733 65.1018 29.26C65.1018 29.8467 65.2244 30.3693 65.4698 30.828C65.7151 31.276 66.0564 31.628 66.4938 31.884C66.9311 32.1293 67.4164 32.252 67.9498 32.252ZM77.5433 24.94C78.7166 24.94 79.6126 25.228 80.2313 25.804C80.8606 26.38 81.1753 27.2387 81.1753 28.38V33.5H79.7193V32.38C79.4633 32.7747 79.0953 33.0787 78.6153 33.292C78.1459 33.4947 77.5859 33.596 76.9353 33.596C75.9859 33.596 75.2233 33.3667 74.6473 32.908C74.0819 32.4493 73.7993 31.8467 73.7993 31.1C73.7993 30.3533 74.0713 29.756 74.6153 29.308C75.1593 28.8493 76.0233 28.62 77.2073 28.62H79.6393V28.316C79.6393 27.6547 79.4473 27.148 79.0633 26.796C78.6793 26.444 78.1139 26.268 77.3673 26.268C76.8659 26.268 76.3753 26.3533 75.8953 26.524C75.4153 26.684 75.0099 26.9027 74.6793 27.18L74.0393 26.028C74.4766 25.676 74.9993 25.4093 75.6073 25.228C76.2153 25.036 76.8606 24.94 77.5433 24.94ZM77.1913 32.412C77.7779 32.412 78.2846 32.284 78.7113 32.028C79.1379 31.7613 79.4473 31.388 79.6393 30.908V29.724H77.2713C75.9699 29.724 75.3193 30.1613 75.3193 31.036C75.3193 31.4627 75.4846 31.7987 75.8153 32.044C76.1459 32.2893 76.6046 32.412 77.1913 32.412ZM89.7171 29.1C90.8158 29.3773 91.3651 30.0653 91.3651 31.164C91.3651 31.9107 91.0825 32.4867 90.5171 32.892C89.9625 33.2973 89.1305 33.5 88.0211 33.5H83.9411V25.02H87.8771C88.8798 25.02 89.6638 25.212 90.2291 25.596C90.7945 25.9693 91.0771 26.5027 91.0771 27.196C91.0771 27.644 90.9545 28.0333 90.7091 28.364C90.4745 28.684 90.1438 28.9293 89.7171 29.1ZM85.4451 28.668H87.7491C88.3358 28.668 88.7785 28.5613 89.0771 28.348C89.3865 28.1347 89.5411 27.8253 89.5411 27.42C89.5411 26.6093 88.9438 26.204 87.7491 26.204H85.4451V28.668ZM87.9091 32.316C88.5491 32.316 89.0291 32.2147 89.3491 32.012C89.6691 31.8093 89.8291 31.4947 89.8291 31.068C89.8291 30.6307 89.6798 30.3053 89.3811 30.092C89.0931 29.8787 88.6345 29.772 88.0051 29.772H85.4451V32.316H87.9091ZM93.7693 25.02H95.3053V31.196L100.505 25.02H101.897V33.5H100.361V27.324L95.1773 33.5H93.7693V25.02ZM111.199 26.364H108.095V33.5H106.559V26.364H103.455V25.02H111.199V26.364ZM116.689 27.9C117.767 27.9107 118.588 28.156 119.153 28.636C119.719 29.116 120.001 29.7933 120.001 30.668C120.001 31.5853 119.692 32.2947 119.073 32.796C118.465 33.2867 117.591 33.5267 116.449 33.516L112.769 33.5V25.02H114.305V27.884L116.689 27.9ZM116.321 32.348C117.015 32.3587 117.537 32.22 117.889 31.932C118.252 31.644 118.433 31.2173 118.433 30.652C118.433 30.0973 118.257 29.692 117.905 29.436C117.564 29.18 117.036 29.0467 116.321 29.036L114.305 29.004V32.332L116.321 32.348Z" fill="white"/>
<g clip-path="url(#clip0_9_116)">
<path d="M161.334 27.0318L155.993 21.6917C155.87 21.5681 155.705 21.5 155.529 21.5C155.353 21.5 155.189 21.5681 155.065 21.6917L154.672 22.0849C154.416 22.3411 154.416 22.7575 154.672 23.0133L159.156 27.4975L154.667 31.9867C154.543 32.1104 154.475 32.2751 154.475 32.4508C154.475 32.6267 154.543 32.7915 154.667 32.9152L155.06 33.3083C155.184 33.4319 155.348 33.5 155.524 33.5C155.7 33.5 155.865 33.4319 155.988 33.3083L161.334 27.9634C161.457 27.8394 161.525 27.6738 161.525 27.4978C161.525 27.3211 161.457 27.1557 161.334 27.0318Z" fill="white"/>
</g>
<rect x="0.5" y="0.5" width="193" height="54" stroke="white"/>
<defs>
<clipPath id="clip0_9_116">
<rect width="12" height="12" fill="white" transform="translate(152 21.5)"/>
</clipPath>
</defs>
</svg>
